# xmcd
#
# Track frame offsets:
#	150
#	13180
#	30069
#	45091
#	62426
#	78695
#	100286
#	121041
#	136735
#	156960
#
# Disc length: 2301 seconds
#
# Revision: 0
# Processed by: cddbd v1.5.1PL0 Copyright (c) Steve Scherf et al.
# Submitted via: dBpowerAMP V4.0
#
DISCID=6908fb0a
DTITLE=Reba McEntire - Rumor Has It
DYEAR=1990
DGENRE=Country
TTITLE0=Climb That Mountain High
TTITLE1=Rumor Has It
TTITLE2=Waitin' For The Deal To Go Down
TTITLE3=You Lie
TTITLE4=Now You Tell Me
TTITLE5=Fancy
TTITLE6=Fallin' Out Of Love
TTITLE7=This Picture
TTITLE8=You Remember Me
TTITLE9=That's All She Wrote
EXTD=
EXTT0=
EXTT1=
EXTT2=
EXTT3=
EXTT4=
EXTT5=
EXTT6=
EXTT7=
EXTT8=
EXTT9=
PLAYORDER=
